<svg width="68" height="52" viewBox="0 0 68 52" fill="none" xmlns="http://www.w3.org/2000/svg">
<path d="M34.4232 14.4159H37.6834C40.9119 14.4159 43.529 11.7987 43.529 8.57031V8.57031C43.529 3.59916 49.3401 0.896849 53.1415 4.10022L61.7719 11.3729C66.5133 15.3684 66.5133 22.6713 61.7719 26.6668L51.5394 35.2895C48.3716 37.959 43.529 35.7071 43.529 31.5645V31.5645C43.529 28.8741 41.3481 26.6932 38.6577 26.6932H28.6902C25.8217 26.6932 23.4963 24.3677 23.4963 21.4992V21.4992C23.4963 16.9985 18.1621 14.6279 14.8216 17.644L5.95946 25.6454C1.65637 29.5306 1.54824 36.249 5.72408 40.2706L14.1895 48.4233C17.6799 51.7848 23.4963 49.3112 23.4963 44.4654V44.4654C23.4963 41.4306 25.9564 38.9704 28.9912 38.9704H32.6021" stroke="#FF7F56" stroke-width="3.49663" stroke-linecap="round" stroke-linejoin="round"/>
</svg>
