<svg width="88" height="88" viewBox="0 0 88 88" fill="none" xmlns="http://www.w3.org/2000/svg">
<path d="M80.6068 69.878L49.3693 84.0011C47.4434 84.9094 45.4356 84.8206 43.5917 83.7552L4.15897 63.7316C3.03213 63.0076 2.69749 61.9491 2.76578 61.2115C2.83408 60.474 3.00481 59.6749 4.98532 59.1013L7.90829 58.0222L47.4639 79.5825L75.5735 68.0955L80.6068 69.878Z" fill="#01579B"/>
<path d="M48.9939 81.7405C48.2127 82.107 47.3556 82.282 46.4933 82.2511C45.6311 82.2202 44.7886 81.9843 44.0357 81.563L5.53868 62.1676C4.99233 61.8671 4.82842 61.1773 5.15623 60.6447C6.00307 59.2446 7.56016 54.8192 4.99233 51.145L48.468 72.077L48.9939 81.7405Z" fill="#F5F5F5"/>
<path d="M78.9404 68.2798L48.9937 81.7405C48.0035 82.1707 46.0298 82.9356 43.7556 81.4058C45.5517 81.5356 46.8152 80.7912 47.464 79.5824C48.0991 78.4078 47.9079 76.4819 47.1361 75.396C46.6649 74.7404 45.4015 73.6955 44.8483 73.1082L77.2399 60.4397C80.1083 59.2583 82.799 61.0271 83.2293 63.1783C83.7073 65.6096 80.6068 67.5969 78.9404 68.2798Z" fill="#94C6D6"/>
<path d="M80.4362 59.3881L49.5197 73.1834C47.5733 73.9551 45.3948 73.8526 43.5304 72.9102L4.02938 52.8455C3.64694 52.6543 3.0801 52.1285 2.85473 51.4114C2.48595 50.2162 2.95035 48.7138 4.35036 48.2357L47.1568 70.0555L76.4683 57.51L80.4362 59.3881Z" fill="#01579B"/>
<path d="M82.7648 61.389L79.3979 60.1666L72.4593 60.5695L49.5263 70.8067C47.5799 71.5784 45.4014 71.476 43.537 70.5335L4.02916 50.4757C3.01158 49.9567 3.23012 48.4474 4.35013 48.2357L32.8217 35.499C33.6344 35.3487 34.4676 35.4375 35.2257 35.7585L75.8535 55.1265C75.8535 55.1265 82.3072 59.5451 82.7648 61.389Z" fill="#0091EA"/>
<path d="M72.0701 60.7675C72.0701 60.7675 76.3453 59.0943 79.7053 59.2445C83.0654 59.3948 84.2332 61.7509 84.2332 61.7509C83.5981 58.8621 80.6136 57.387 80.6136 57.387L36.2228 35.0345C35.9155 34.9047 34.7818 34.6384 33.0404 35.3555C31.6335 35.936 27.0374 38.0872 27.0374 38.0872L72.0701 60.7675Z" fill="#616161"/>
<path d="M84.4245 62.2973C84.1035 61.0202 83.3113 59.6543 81.8498 58.9919C79.924 58.1245 77.1786 58.3499 75.4234 59.265L72.0702 60.7538V63.1168L76.3112 61.2319C80.4362 59.3948 82.2664 62.147 82.4235 62.7958C83.0791 65.4388 81.8089 66.9685 78.0596 68.6895L71.9678 71.4349V73.8116L78.9747 70.6905C82.0752 69.4476 85.6128 67.112 84.4245 62.2973Z" fill="#424242"/>
<path d="M22.5437 61.6759L10.7494 45.3742L12.6001 44.5479L25.8696 62.7822L22.5437 61.6759ZM37.6707 69.1882L35.5673 67.5218L72.0702 60.071V61.2661L66.955 63.2056L37.6707 69.1882Z" fill="#01579B"/>
<path d="M10.1074 31.538L56.2124 23.8345L76.3522 46.0094C77.3697 47.0816 76.8166 48.8572 75.3687 49.1509L27.7681 58.9169L10.1074 31.538Z" fill="#9CCC65"/>
<path d="M75.3687 47.2386L28.0959 56.8134L27.9457 59.0671L75.3687 49.3421C76.7073 49.0621 77.2673 47.5323 76.5365 46.4532C76.277 46.8357 75.8809 47.1362 75.3687 47.2386ZM77.9161 57.5714C78.4146 58.3636 77.9639 59.4085 77.0487 59.5929L33.5321 68.4165C30.9164 68.956 28.3486 67.2418 28.1164 64.5784C27.9184 62.3247 29.4413 60.2827 31.6608 59.8183L73.5111 50.4211L77.9161 57.5714Z" fill="#689F38"/>
<path d="M37.9645 54.7031L20.6316 29.8989L10.7427 32.5146C8.45482 34.7887 9.30849 38.5244 9.30849 38.5244C9.30849 38.5244 24.4492 62.8232 26.8394 65.9306C29.2297 69.038 32.7195 68.5531 32.7195 68.5531L38.6133 67.3648L37.9986 56.3695L37.9645 54.7031Z" fill="#616161"/>
<path d="M37.9644 54.867L29.6395 56.588C27.3653 57.1002 26.9555 59.2378 26.9555 59.2378L6.85673 30.4384C6.85673 30.4384 3.99523 33.9009 5.89379 36.8443L26.8394 65.9306C29.1273 69.1882 32.7195 68.5804 32.7195 68.5804L38.6132 67.392L38.0054 56.6153L37.9644 54.867Z" fill="#424242"/>
<path d="M75.2938 56.6836C75.5055 57.148 75.2323 57.6876 74.7337 57.79L33.1225 66.3267C30.5069 66.8662 28.6561 65.1316 28.7517 62.7686C28.8746 59.7842 30.5478 58.5207 32.7605 58.0632L74.5767 49.5197C74.5767 49.5197 73.1562 51.1177 74.242 54.109C74.6108 55.1402 75.0069 56.0553 75.2938 56.6836Z" fill="#B9E4EA"/>
<path d="M30.8755 57.1617L13.0441 31.9341" stroke="#424242" stroke-width="1.81038" stroke-miterlimit="10"/>
<path d="M32.2756 46.4055L9.34261 34.8502L8.41382 36.6805L34.9117 50.1821L32.2756 46.4055Z" fill="#424242"/>
<path d="M74.2965 43.7283L72.6165 41.8844L46.7811 53.7402L32.2755 46.5625L34.7477 50.1001L44.3566 55.0104L51.5138 53.9109L74.2965 43.7283Z" fill="#689F38"/>
<path d="M80.5999 39.1663L49.3693 53.2894C47.4434 54.1977 45.4356 54.1089 43.5917 53.0436L4.15897 33.0199C3.03213 32.296 2.69749 31.2374 2.76578 30.4999C2.83408 29.7623 3.00481 28.9633 4.98532 28.3896L6.83608 27.7067L47.3478 47.5869L80.2448 33.976L80.5999 39.1663Z" fill="#C62828"/>
<path d="M48.987 51.0289C48.2059 51.3954 47.3487 51.5704 46.4865 51.5395C45.6243 51.5086 44.7818 51.2727 44.0289 50.8514L5.53184 31.456C4.98549 31.1555 4.82159 30.4657 5.1494 29.933C5.99624 28.533 7.55333 24.1076 4.98549 20.4334L47.4914 42.0551L48.987 51.0289Z" fill="#F5F5F5"/>
<path d="M78.9336 37.5682L48.9869 51.0289C47.9966 51.4591 46.023 52.224 43.7488 50.6942C45.5449 50.824 46.8083 50.0796 47.4571 48.8708C48.0922 47.6962 47.901 45.7703 47.1293 44.6844C46.6581 44.0288 45.3947 42.9839 44.8415 42.3966L77.2331 29.7281C80.1014 28.5466 82.7922 30.3154 83.2224 32.4667C83.7005 34.8979 80.6 36.8853 78.9336 37.5682Z" fill="#94C6D6"/>
<path d="M80.4363 28.6764L49.5198 42.4717C47.5734 43.2434 45.3949 43.141 43.5305 42.1986L4.02266 22.1339C3.61289 21.929 2.99825 21.4032 2.8002 20.6588C2.50654 19.5524 2.88898 18.0978 4.34364 17.5241L40.546 9.85474L80.4363 28.6764Z" fill="#C62828"/>
<path d="M82.7582 30.6774L79.3914 29.455L72.4527 29.8579L49.5198 40.0951C47.5734 40.8668 45.3948 40.7644 43.5304 39.8219L4.02261 19.7573C3.00504 19.2383 3.36699 17.8656 4.34359 17.5173L32.822 4.78735C33.6347 4.63711 34.4679 4.72589 35.2259 5.04687L75.8538 24.4149C75.8538 24.4149 82.3007 28.8267 82.7582 30.6774Z" fill="#F44336"/>
<path d="M72.0701 30.049C72.0701 30.049 75.6282 28.7993 78.9883 28.9495C82.3483 29.0998 84.24 31.0325 84.24 31.0325C83.5503 27.9456 80.6205 26.6685 80.6205 26.6685L36.2297 4.31604C35.9223 4.18628 34.7887 3.91994 33.0472 4.63702C31.6403 5.21752 27.0442 7.36876 27.0442 7.36876L72.0701 30.049Z" fill="#616161"/>
<path d="M76.1336 28.5877L30.7115 5.67519L32.214 4.99908L78.4078 28.1506L76.1336 28.5877Z" fill="#424242"/>
<path d="M84.4177 31.5857C84.0967 30.3086 83.5572 29.0725 82.0342 28.4305C80.0879 27.611 78.3122 27.4402 75.4166 28.5534L72.0634 30.0422V32.4052L76.3044 30.5203C78.4557 29.5095 81.6245 29.7281 82.4167 32.0842C83.284 34.6657 81.802 36.2569 78.0527 37.9779L71.9609 40.7233V43.1L78.9679 39.9789C82.0752 38.736 85.6128 36.4004 84.4177 31.5857Z" fill="#424242"/>
</svg>
