<svg width="88" height="88" viewBox="0 0 88 88" fill="none" xmlns="http://www.w3.org/2000/svg">
<path d="M52.8137 78.3099V69.9325L57.5487 70.8431C62.8301 71.9358 67.7472 68.1114 68.1115 62.83L69.2041 50.9925L74.4855 48.8071C76.3067 48.0786 77.0351 45.8932 75.9424 44.0721L69.2041 32.7809C68.1115 18.94 60.2805 5.46344 40.0656 5.46344C19.3043 5.46344 9.10583 20.7612 9.10583 36.4232C9.10583 43.1615 11.4733 48.9892 15.1157 53.9063C18.3938 58.4592 20.0328 63.9227 20.0328 69.3862V78.1278H52.8137V78.3099Z" fill="#FFB74D"/>
<path d="M52.814 78.3098V69.9324L40.0659 67.3828V78.3098H52.814Z" fill="#FF9800"/>
<path d="M61.009 41.8867C62.5177 41.8867 63.7407 40.6637 63.7407 39.155C63.7407 37.6463 62.5177 36.4232 61.009 36.4232C59.5003 36.4232 58.2772 37.6463 58.2772 39.155C58.2772 40.6637 59.5003 41.8867 61.009 41.8867Z" fill="#784719"/>
<path d="M38.9729 5.46344C22.4003 5.46344 9.10583 18.7579 9.10583 35.3305C9.10583 55.5454 20.0328 56.0917 20.0328 69.2041L24.7678 67.565C28.5923 66.2902 31.8703 63.3764 33.3273 59.5519L38.4265 47.168L49.1714 41.8867V30.9597C49.1714 30.9597 61.9195 24.0393 61.9195 12.2017C56.456 7.64883 46.8039 5.46344 38.9729 5.46344Z" fill="#FF5722"/>
<path d="M38.2445 3.8244C37.1518 3.8244 36.4233 4.55287 36.4233 5.64556V30.9597C36.4233 32.0524 37.1518 32.7809 38.2445 32.7809C39.3372 32.7809 40.0657 32.0524 40.0657 30.9597V5.64556C40.0657 4.55287 39.3372 3.8244 38.2445 3.8244ZM67.201 58.095C52.8138 58.095 48.443 49.1713 48.2609 48.8071C47.8967 47.8965 46.804 47.5323 45.8934 47.8965C44.9828 48.2607 44.6186 49.3534 44.9828 50.264C45.1649 50.8104 50.4463 61.7373 67.201 61.7373C68.2937 61.7373 69.0221 61.0089 69.0221 59.9162C69.0221 58.8235 68.1115 58.095 67.201 58.095Z" fill="#546E7A"/>
<path d="M67.383 63.7405C69.3946 63.7405 71.0254 62.1098 71.0254 60.0982C71.0254 58.0866 69.3946 56.4559 67.383 56.4559C65.3714 56.4559 63.7407 58.0866 63.7407 60.0982C63.7407 62.1098 65.3714 63.7405 67.383 63.7405Z" fill="#37474F"/>
<path d="M38.2445 54.6347C45.2851 54.6347 50.9926 48.9272 50.9926 41.8866C50.9926 34.846 45.2851 29.1385 38.2445 29.1385C31.2039 29.1385 25.4963 34.846 25.4963 41.8866C25.4963 48.9272 31.2039 54.6347 38.2445 54.6347Z" fill="#37474F"/>
<path d="M38.2445 49.1712C42.2677 49.1712 45.5291 45.9098 45.5291 41.8866C45.5291 37.8634 42.2677 34.6019 38.2445 34.6019C34.2213 34.6019 30.9598 37.8634 30.9598 41.8866C30.9598 45.9098 34.2213 49.1712 38.2445 49.1712Z" fill="#546E7A"/>
</svg>
