<svg width="84" height="84" viewBox="0 0 84 84" fill="none" xmlns="http://www.w3.org/2000/svg">
<path d="M17.4915 25.5948C17.0049 21.9097 16.181 15.4153 16.726 11.8405C17.2709 8.26568 18.6983 4.96984 21.6762 3.66577C24.2519 2.54337 27.4634 3.73065 29.3189 6.50747C30.3765 8.09051 30.9798 10.0434 31.4924 11.9768C32.3683 15.2986 33.2052 19.8401 33.6269 23.2592" stroke="#F67951" stroke-width="2.62247" stroke-miterlimit="10"/>
<path d="M19.9246 75.6749L4.24341 69.1416L7.88311 53.0905L7.10457 16.5118L46.7845 11.8535V15.318L56.2244 16.5118L19.9246 75.6749Z" fill="#5352ED"/>
<path d="M59.5914 69.706L19.918 75.7137L16.5443 54.706V22.5131L56.2242 16.5118V48.6982L59.5914 69.706Z" fill="#F67951"/>
<path d="M16.5442 22.513V18.8928L7.10437 16.5117L46.8621 12.1L48.1338 14.9157L56.2242 16.5117L16.5442 22.513Z" fill="#263238"/>
<path d="M4.24341 69.1415C4.5159 69.1415 13.6379 61.9075 13.6379 61.9075L19.9181 75.7137L18.5687 53.7003L16.525 22.5131L13.8714 56.2176L4.24341 69.1415Z" fill="#F67951"/>
<path d="M46.7453 12.5151L47.7055 14.734L47.8288 15.026L48.1337 15.1038L52.9672 16.343L17.193 21.7604V18.3867L16.6999 18.2634L10.6792 16.7452L46.7453 12.5151ZM47.1541 11.8145L7.11084 16.5117L16.5507 18.8927V22.5195L56.2241 16.5117L48.3024 14.4745L47.1541 11.8145Z" fill="#5352ED"/>
<path d="M28.5146 24.9459C28.028 21.2673 22.961 7.1367 32.6604 5.33307C39.9917 3.97061 43.2291 19.587 43.6573 23.0126" stroke="#F67951" stroke-width="2.62247" stroke-miterlimit="10"/>
<path d="M29.7213 25.9711C29.1569 24.0702 28.5665 20.2294 28.5405 20.0607L30.4609 19.7687C30.4674 19.8076 31.1551 23.7263 31.9077 25.5624L29.7213 25.9711ZM44.8511 23.6679C44.2866 21.767 43.6962 17.9262 43.6703 17.7575L45.5907 17.4655C45.5972 17.5044 46.3952 21.488 47.0634 23.2657L44.8511 23.6679ZM30.3896 74.1307L35.8394 64.6908L33.2378 39.5243L55.0176 35.2877L43.3394 72.1973L30.3896 74.1307Z" fill="#5352ED"/>
<path d="M47.4073 37.0135C47.4073 37.0135 44.9549 23.9923 53.1232 24.8552C57.5674 25.3223 57.3857 35.6575 57.3857 35.6575" stroke="#F67951" stroke-width="2.62247" stroke-miterlimit="10"/>
<path d="M48.3091 80.4435L36.2611 75.4024L39.0639 63.0624L38.467 34.9439L68.9601 31.3626V34.0291L76.2135 34.9439L48.3091 80.4435Z" fill="#F67951"/>
<path d="M78.8019 75.8304L48.3089 80.4498L45.7202 64.3015V39.5632L76.2133 34.9438V59.6886L78.8019 75.8304Z" fill="#5352ED"/>
<path d="M45.7204 39.5633L43.2809 37.6948L38.4669 34.9439L68.96 31.3626L71.7303 33.1079L76.2134 34.9439L45.7204 39.5633Z" fill="#263238"/>
<path d="M68.8432 32.0309L74.0659 34.6066L45.8566 38.8756L40.3484 35.3721L68.8432 32.0309ZM68.96 31.3626L38.4669 34.9439L45.7204 39.5633L76.2134 34.9439L68.96 31.3626Z" fill="#F67951"/>
<path d="M56.0294 42.0481C55.5947 40.5948 55.147 37.6428 55.1276 37.5195L56.8404 37.2989C56.8469 37.3314 57.2815 40.3028 57.6838 41.6718L56.0294 42.0481ZM67.6362 40.2639C67.2015 38.8106 66.7539 35.8586 66.7344 35.7353L68.4277 35.5212C68.4342 35.5537 68.7846 38.616 69.1868 39.9849L67.6362 40.2639Z" fill="#F67951"/>
<path d="M55.0693 42.113C54.693 39.2843 50.8392 27.3596 58.1056 26.3539C63.7825 25.5689 66.2285 37.312 66.5593 39.9396" stroke="#5352ED" stroke-width="2.62247" stroke-miterlimit="10"/>
<path d="M36.2611 75.4024L42.4181 70.1861L48.3091 80.45L45.7334 64.3989L45.7594 39.6412L45.0327 39.3427L42.736 64.5092L36.2611 75.4024Z" fill="#AB2C5E"/>
</svg>
